# Blender v3.0.1 OBJ File: ''
# www.blender.org
o woody
v 0.206616 0.079612 0.000000
v 0.163000 0.075000 0.000000
v 0.183009 0.059359 0.000000
v 0.179000 0.027000 0.000000
v 0.504788 0.233105 0.000000
v 0.496580 0.204444 0.000000
v 0.529000 0.225000 0.000000
v 0.165000 0.105000 0.000000
v 0.115066 0.502442 0.000000
v 0.145959 0.509650 0.000000
v 0.123116 0.544450 0.000000
v 0.337230 0.564423 0.000000
v 0.193212 0.141105 0.000000
v 0.169000 0.133000 0.000000
v 0.197454 0.112152 0.000000
v 0.210795 0.178098 0.000000
v 0.195000 0.011000 0.000000
v 0.117000 0.569000 0.000000
v 0.329000 0.109000 0.000000
v 0.304402 0.117326 0.000000
v 0.196927 0.441231 0.000000
v 0.187000 0.419000 0.000000
v 0.209000 0.413000 0.000000
v 0.483352 0.032065 0.000000
v 0.459113 0.056304 0.000000
v 0.043000 0.547000 0.000000
v 0.087718 0.534389 0.000000
v 0.065000 0.557000 0.000000
v 0.059681 0.501494 0.000000
v 0.181000 0.185000 0.000000
v 0.175000 0.159000 0.000000
v 0.435000 0.047000 0.000000
v 0.447173 0.086961 0.000000
v 0.231825 0.206721 0.000000
v 0.205146 0.219502 0.000000
v 0.239435 0.559066 0.000000
v 0.247988 0.599886 0.000000
v 0.232037 0.634220 0.000000
v 0.324655 0.753658 0.000000
v 0.233901 0.028385 0.000000
v 0.505000 0.393000 0.000000
v 0.517000 0.413000 0.000000
v 0.498572 0.422075 0.000000
v 0.289000 0.021000 0.000000
v 0.271000 0.007000 0.000000
v 0.202000 0.340000 0.000000
v 0.201000 0.325000 0.000000
v 0.294257 0.079685 0.000000
v 0.261904 0.064916 0.000000
v 0.202098 0.543715 0.000000
v 0.219848 0.510673 0.000000
v 0.241549 0.524144 0.000000
v 0.129000 0.413000 0.000000
v 0.145406 0.440885 0.000000
v 0.102803 0.440843 0.000000
v 0.303000 0.039000 0.000000
v 0.268215 0.273293 0.000000
v 0.243635 0.266912 0.000000
v 0.227932 0.241923 0.000000
v 0.305316 0.260243 0.000000
v 0.330678 0.235068 0.000000
v 0.042990 0.459876 0.000000
v 0.007000 0.447000 0.000000
v 0.021000 0.429000 0.000000
v 0.336150 0.201924 0.000000
v 0.347000 0.187000 0.000000
v 0.219000 0.003000 0.000000
v 0.463000 0.011000 0.000000
v 0.485000 0.001000 0.000000
v 0.310860 0.180222 0.000000
v 0.312503 0.150324 0.000000
v 0.339000 0.163000 0.000000
v 0.308451 0.291530 0.000000
v 0.224311 0.700855 0.000000
v 0.203000 0.711000 0.000000
v 0.197000 0.685000 0.000000
v 0.167000 0.047000 0.000000
v 0.476670 0.104217 0.000000
v 0.511653 0.109484 0.000000
v 0.476921 0.141776 0.000000
v 0.001000 0.493000 0.000000
v 0.001000 0.473000 0.000000
v 0.018184 0.463273 0.000000
v 0.045000 0.421000 0.000000
v 0.565000 0.045000 0.000000
v 0.539905 0.080467 0.000000
v 0.225000 0.589000 0.000000
v 0.107431 0.472324 0.000000
v 0.091000 0.563000 0.000000
v 0.347904 0.721055 0.000000
v 0.153537 0.477107 0.000000
v 0.009000 0.517000 0.000000
v 0.074711 0.461801 0.000000
v 0.497443 0.258795 0.000000
v 0.472987 0.238460 0.000000
v 0.023000 0.535000 0.000000
v 0.283484 0.764202 0.000000
v 0.303000 0.803000 0.000000
v 0.514621 0.034176 0.000000
v 0.201000 0.629000 0.000000
v 0.211000 0.607000 0.000000
v 0.396047 0.575532 0.000000
v 0.177000 0.573000 0.000000
v 0.247000 -0.001000 -0.000000
v 0.209000 0.573000 0.000000
v 0.269634 0.521791 0.000000
v 0.174260 0.516968 0.000000
v 0.244054 0.749946 0.000000
v 0.235113 0.725696 0.000000
v 0.223000 0.755000 0.000000
v 0.239000 0.771000 0.000000
v 0.425000 0.773000 0.000000
v 0.417829 0.719368 0.000000
v 0.439000 0.755000 0.000000
v 0.063960 0.437879 0.000000
v 0.069000 0.413000 0.000000
v 0.257000 0.785000 0.000000
v 0.227267 0.132016 0.000000
v 0.279000 0.795000 0.000000
v 0.265141 0.711941 0.000000
v 0.147000 0.571000 0.000000
v 0.237357 0.074203 0.000000
v 0.397000 0.137000 0.000000
v 0.407000 0.115000 0.000000
v 0.438378 0.129564 0.000000
v 0.517507 0.168485 0.000000
v 0.525057 0.133252 0.000000
v 0.551000 0.151000 0.000000
v 0.415000 0.091000 0.000000
v 0.447000 0.027000 0.000000
v 0.323337 0.452575 0.000000
v 0.335765 0.514321 0.000000
v 0.197000 0.297000 0.000000
v 0.451000 0.735000 0.000000
v 0.459000 0.711000 0.000000
v 0.379000 0.183000 0.000000
v 0.410976 0.173415 0.000000
v 0.380276 0.211662 0.000000
v 0.290137 0.316705 0.000000
v 0.320641 0.316112 0.000000
v 0.479200 0.380004 0.000000
v 0.410264 0.209229 0.000000
v 0.289542 0.567306 0.000000
v 0.155078 0.541293 0.000000
v 0.513000 0.001000 0.000000
v 0.537000 0.009000 0.000000
v 0.247646 0.675357 0.000000
v 0.555000 0.023000 0.000000
v 0.565000 0.101000 0.000000
v 0.559000 0.127000 0.000000
v 0.653293 0.465978 0.000000
v 0.635000 0.423000 0.000000
v 0.237003 0.446693 0.000000
v 0.474287 0.079054 0.000000
v 0.195000 0.267000 0.000000
v 0.189000 0.241000 0.000000
v 0.267951 0.376157 0.000000
v 0.296141 0.404772 0.000000
v 0.365000 0.201000 0.000000
v 0.211000 0.735000 0.000000
v 0.509000 0.333000 0.000000
v 0.483753 0.337604 0.000000
v 0.099000 0.411000 0.000000
v 0.543000 0.175000 0.000000
v 0.523000 0.251000 0.000000
v 0.443693 0.167629 0.000000
v 0.437792 0.199679 0.000000
v 0.315000 0.059000 0.000000
v 0.323000 0.083000 0.000000
v 0.543000 0.419000 0.000000
v 0.533488 0.444046 0.000000
v 0.463000 0.683000 0.000000
v 0.344107 0.605353 0.000000
v 0.495268 0.475821 0.000000
v 0.499350 0.506518 0.000000
v 0.441000 0.581000 0.000000
v 0.451000 0.603000 0.000000
v 0.423473 0.590087 0.000000
v 0.530867 0.499652 0.000000
v 0.516163 0.528528 0.000000
v 0.471918 0.432206 0.000000
v 0.197000 0.657000 0.000000
v 0.390723 0.770720 0.000000
v 0.440810 0.633922 0.000000
v 0.326627 0.787158 0.000000
v 0.359592 0.761349 0.000000
v 0.331000 0.807000 0.000000
v 0.390897 0.734885 0.000000
v 0.469384 0.274739 0.000000
v 0.605000 0.421000 0.000000
v 0.607126 0.475706 0.000000
v 0.679000 0.443000 0.000000
v 0.693000 0.461000 0.000000
v 0.292708 0.360118 0.000000
v 0.318231 0.383484 0.000000
v 0.659000 0.431000 0.000000
v 0.630535 0.500219 0.000000
v 0.582604 0.545895 0.000000
v 0.598495 0.526219 0.000000
v 0.589818 0.495372 0.000000
v 0.359000 0.803000 0.000000
v 0.670520 0.494607 0.000000
v 0.675000 0.531000 0.000000
v 0.657000 0.545000 0.000000
v 0.362403 0.234379 0.000000
v 0.511277 0.071676 0.000000
v 0.159000 0.415000 0.000000
v 0.172121 0.444308 0.000000
v 0.203204 0.488153 0.000000
v 0.236059 0.165448 0.000000
v 0.185000 0.213000 0.000000
v 0.389000 0.161000 0.000000
v 0.400290 0.241601 0.000000
v 0.484333 0.167725 0.000000
v 0.438586 0.241861 0.000000
v 0.260045 0.337733 0.000000
v 0.365674 0.268323 0.000000
v 0.335491 0.289139 0.000000
v 0.307552 0.217950 0.000000
v 0.276405 0.192969 0.000000
v 0.333000 0.137000 0.000000
v 0.280742 0.231982 0.000000
v 0.253317 0.222614 0.000000
v 0.318045 0.349494 0.000000
v 0.507000 0.363000 0.000000
v 0.359123 0.343338 0.000000
v 0.362904 0.297132 0.000000
v 0.456164 0.352409 0.000000
v 0.457784 0.407385 0.000000
v 0.239669 0.303542 0.000000
v 0.249638 0.486269 0.000000
v 0.214131 0.276138 0.000000
v 0.388256 0.364956 0.000000
v 0.378964 0.323699 0.000000
v 0.207000 0.383000 0.000000
v 0.242107 0.405984 0.000000
v 0.446806 0.542160 0.000000
v 0.465000 0.573000 0.000000
v 0.394727 0.292764 0.000000
v 0.438605 0.371681 0.000000
v 0.456828 0.468319 0.000000
v 0.444852 0.445666 0.000000
v 0.488140 0.543637 0.000000
v 0.410617 0.405915 0.000000
v 0.405000 0.785000 0.000000
v 0.385000 0.797000 0.000000
v 0.410291 0.686877 0.000000
v 0.697000 0.489000 0.000000
v 0.689000 0.513000 0.000000
v 0.637000 0.557000 0.000000
v 0.611000 0.563000 0.000000
v 0.260496 0.142981 0.000000
v 0.286642 0.149733 0.000000
v 0.569000 0.073000 0.000000
v 0.262669 0.107684 0.000000
v 0.459000 0.627000 0.000000
v 0.303022 0.530894 0.000000
v 0.299521 0.731156 0.000000
v 0.300409 0.698924 0.000000
v 0.345129 0.680495 0.000000
v 0.375089 0.662916 0.000000
v 0.400235 0.636445 0.000000
v 0.416451 0.660400 0.000000
v 0.535000 0.199000 0.000000
v 0.339709 0.421928 0.000000
v 0.313655 0.425911 0.000000
v 0.273519 0.430550 0.000000
v 0.290157 0.456789 0.000000
v 0.369661 0.405481 0.000000
v 0.235743 0.375352 0.000000
v 0.223595 0.352625 0.000000
v 0.302832 0.491756 0.000000
v 0.353771 0.450840 0.000000
v 0.457532 0.503001 0.000000
v 0.421995 0.555671 0.000000
v 0.364062 0.486874 0.000000
v 0.409576 0.526400 0.000000
v 0.377182 0.527187 0.000000
v 0.517000 0.277000 0.000000
v 0.573000 0.421000 0.000000
v 0.578007 0.466130 0.000000
v 0.411331 0.482111 0.000000
v 0.455418 0.316770 0.000000
v 0.463000 0.655000 0.000000
v 0.372882 0.606766 0.000000
v 0.407000 0.609727 0.000000
v 0.587000 0.571000 0.000000
v 0.275541 0.643661 0.000000
v 0.286268 0.671783 0.000000
v 0.470987 0.191376 0.000000
v 0.203000 0.355000 0.000000
v 0.496654 0.296001 0.000000
v 0.565443 0.513343 0.000000
v 0.415712 0.339176 0.000000
v 0.557000 0.573000 0.000000
v 0.225692 0.101610 0.000000
v 0.283068 0.619355 0.000000
v 0.317806 0.622818 0.000000
v 0.309453 0.590106 0.000000
v 0.359189 0.639899 0.000000
v 0.495000 0.571000 0.000000
v 0.513000 0.305000 0.000000
v 0.511231 0.553534 0.000000
v 0.540293 0.549724 0.000000
v 0.525000 0.573000 0.000000
v 0.554803 0.477756 0.000000
v 0.415942 0.450936 0.000000
v 0.323669 0.660816 0.000000
v 0.381615 0.461957 0.000000
v 0.427915 0.290341 0.000000
v 0.385781 0.432840 0.000000
v 0.350829 0.372446 0.000000
v 0.276907 0.492734 0.000000
v 0.372616 0.698681 0.000000
vn 0.0000 -0.0000 1.0000
f 1//1 2//1 3//1
f 5//1 6//1 7//1
f 8//1 2//1 1//1
f 9//1 10//1 11//1
f 13//1 14//1 15//1
f 21//1 22//1 23//1
f 26//1 27//1 28//1
f 26//1 29//1 27//1
f 16//1 30//1 31//1
f 32//1 25//1 33//1
f 34//1 35//1 16//1
f 4//1 17//1 40//1
f 41//1 42//1 43//1
f 44//1 40//1 45//1
f 48//1 49//1 44//1
f 50//1 51//1 52//1
f 53//1 54//1 55//1
f 57//1 58//1 59//1
f 4//1 40//1 3//1
f 62//1 63//1 64//1
f 40//1 17//1 67//1
f 24//1 68//1 69//1
f 70//1 71//1 72//1
f 74//1 75//1 76//1
f 77//1 4//1 3//1
f 78//1 79//1 80//1
f 81//1 82//1 83//1
f 62//1 64//1 84//1
f 87//1 36//1 37//1
f 62//1 83//1 63//1
f 11//1 18//1 89//1
f 10//1 9//1 91//1
f 5//1 94//1 95//1
f 92//1 26//1 96//1
f 89//1 27//1 11//1
f 99//1 85//1 86//1
f 38//1 100//1 101//1
f 101//1 87//1 37//1
f 81//1 83//1 62//1
f 104//1 40//1 67//1
f 36//1 87//1 105//1
f 36//1 52//1 106//1
f 10//1 91//1 107//1
f 38//1 101//1 37//1
f 31//1 14//1 13//1
f 120//1 108//1 109//1
f 108//1 110//1 109//1
f 110//1 108//1 111//1
f 112//1 113//1 114//1
f 1//1 3//1 40//1
f 97//1 111//1 108//1
f 115//1 84//1 116//1
f 117//1 111//1 97//1
f 118//1 13//1 15//1
f 120//1 109//1 74//1
f 18//1 11//1 121//1
f 115//1 62//1 84//1
f 49//1 122//1 40//1
f 72//1 66//1 70//1
f 123//1 124//1 125//1
f 2//1 77//1 3//1
f 126//1 127//1 128//1
f 129//1 32//1 33//1
f 125//1 129//1 33//1
f 68//1 24//1 130//1
f 32//1 130//1 25//1
f 44//1 56//1 48//1
f 136//1 137//1 138//1
f 123//1 125//1 137//1
f 43//1 141//1 41//1
f 92//1 29//1 26//1
f 142//1 138//1 137//1
f 105//1 50//1 36//1
f 36//1 106//1 143//1
f 10//1 144//1 11//1
f 145//1 146//1 99//1
f 209//1 21//1 153//1
f 155//1 156//1 59//1
f 236//1 157//1 158//1
f 159//1 136//1 138//1
f 24//1 25//1 130//1
f 108//1 120//1 97//1
f 75//1 74//1 160//1
f 116//1 163//1 55//1
f 126//1 128//1 164//1
f 165//1 5//1 7//1
f 146//1 148//1 99//1
f 137//1 166//1 167//1
f 148//1 85//1 99//1
f 48//1 168//1 169//1
f 170//1 171//1 42//1
f 263//1 172//1 135//1
f 83//1 82//1 63//1
f 40//1 104//1 45//1
f 92//1 62//1 29//1
f 176//1 177//1 178//1
f 175//1 179//1 180//1
f 109//1 110//1 160//1
f 76//1 182//1 74//1
f 184//1 178//1 177//1
f 185//1 39//1 186//1
f 187//1 98//1 185//1
f 112//1 183//1 188//1
f 134//1 114//1 113//1
f 95//1 94//1 189//1
f 145//1 99//1 69//1
f 81//1 62//1 92//1
f 151//1 191//1 190//1
f 192//1 193//1 151//1
f 196//1 151//1 152//1
f 93//1 88//1 29//1
f 151//1 197//1 191//1
f 50//1 52//1 36//1
f 197//1 200//1 191//1
f 187//1 185//1 201//1
f 151//1 202//1 197//1
f 159//1 205//1 65//1
f 154//1 24//1 206//1
f 99//1 206//1 24//1
f 100//1 38//1 182//1
f 9//1 11//1 27//1
f 29//1 9//1 27//1
f 207//1 208//1 54//1
f 9//1 29//1 88//1
f 91//1 9//1 88//1
f 93//1 55//1 88//1
f 91//1 54//1 208//1
f 115//1 93//1 62//1
f 10//1 107//1 144//1
f 144//1 107//1 103//1
f 121//1 11//1 144//1
f 66//1 65//1 70//1
f 30//1 16//1 211//1
f 14//1 8//1 15//1
f 16//1 13//1 118//1
f 159//1 138//1 205//1
f 211//1 16//1 35//1
f 125//1 124//1 129//1
f 136//1 212//1 137//1
f 142//1 213//1 138//1
f 80//1 126//1 214//1
f 216//1 230//1 139//1
f 205//1 217//1 61//1
f 205//1 61//1 65//1
f 159//1 65//1 66//1
f 219//1 65//1 61//1
f 60//1 61//1 217//1
f 61//1 60//1 219//1
f 71//1 20//1 221//1
f 60//1 217//1 218//1
f 139//1 140//1 224//1
f 139//1 57//1 73//1
f 73//1 218//1 140//1
f 73//1 60//1 218//1
f 215//1 213//1 142//1
f 225//1 41//1 141//1
f 140//1 139//1 73//1
f 60//1 73//1 57//1
f 226//1 218//1 227//1
f 140//1 218//1 226//1
f 224//1 194//1 139//1
f 47//1 133//1 230//1
f 140//1 226//1 224//1
f 139//1 230//1 57//1
f 233//1 226//1 234//1
f 139//1 194//1 216//1
f 165//1 94//1 5//1
f 171//1 174//1 43//1
f 229//1 141//1 43//1
f 229//1 43//1 181//1
f 176//1 237//1 238//1
f 225//1 141//1 162//1
f 174//1 181//1 43//1
f 241//1 242//1 181//1
f 243//1 238//1 237//1
f 181//1 242//1 229//1
f 183//1 112//1 245//1
f 188//1 113//1 112//1
f 246//1 183//1 245//1
f 246//1 201//1 186//1
f 202//1 248//1 249//1
f 251//1 198//1 250//1
f 48//1 56//1 168//1
f 44//1 49//1 40//1
f 48//1 169//1 20//1
f 86//1 85//1 254//1
f 149//1 86//1 254//1
f 48//1 255//1 49//1
f 115//1 116//1 93//1
f 62//1 93//1 29//1
f 184//1 177//1 256//1
f 74//1 109//1 160//1
f 38//1 147//1 182//1
f 97//1 98//1 119//1
f 185//1 98//1 97//1
f 117//1 97//1 119//1
f 97//1 39//1 185//1
f 120//1 74//1 147//1
f 258//1 259//1 39//1
f 260//1 90//1 259//1
f 261//1 262//1 263//1
f 188//1 183//1 186//1
f 33//1 25//1 154//1
f 24//1 154//1 25//1
f 236//1 153//1 23//1
f 208//1 21//1 209//1
f 194//1 195//1 158//1
f 91//1 88//1 54//1
f 23//1 153//1 21//1
f 50//1 107//1 209//1
f 153//1 231//1 209//1
f 52//1 51//1 231//1
f 28//1 27//1 89//1
f 107//1 50//1 103//1
f 13//1 16//1 31//1
f 35//1 156//1 211//1
f 210//1 34//1 16//1
f 210//1 16//1 118//1
f 220//1 223//1 34//1
f 253//1 220//1 252//1
f 126//1 164//1 264//1
f 127//1 80//1 79//1
f 166//1 137//1 125//1
f 219//1 220//1 70//1
f 71//1 70//1 253//1
f 223//1 220//1 222//1
f 70//1 220//1 253//1
f 232//1 58//1 230//1
f 265//1 158//1 195//1
f 195//1 194//1 224//1
f 265//1 266//1 158//1
f 236//1 267//1 153//1
f 195//1 269//1 265//1
f 23//1 235//1 236//1
f 158//1 157//1 194//1
f 158//1 266//1 268//1
f 266//1 265//1 131//1
f 131//1 268//1 266//1
f 106//1 272//1 257//1
f 243//1 237//1 274//1
f 237//1 176//1 275//1
f 273//1 131//1 265//1
f 131//1 273//1 276//1
f 216//1 270//1 271//1
f 94//1 165//1 279//1
f 6//1 126//1 264//1
f 190//1 191//1 281//1
f 241//1 274//1 282//1
f 225//1 162//1 161//1
f 228//1 162//1 141//1
f 134//1 113//1 135//1
f 263//1 284//1 172//1
f 135//1 247//1 263//1
f 184//1 286//1 178//1
f 281//1 280//1 190//1
f 196//1 192//1 151//1
f 202//1 151//1 248//1
f 202//1 249//1 203//1
f 199//1 197//1 250//1
f 287//1 198//1 251//1
f 250//1 198//1 199//1
f 197//1 199//1 200//1
f 250//1 197//1 203//1
f 250//1 203//1 204//1
f 202//1 203//1 197//1
f 20//1 169//1 19//1
f 19//1 221//1 20//1
f 255//1 48//1 20//1
f 118//1 252//1 210//1
f 40//1 122//1 1//1
f 150//1 128//1 127//1
f 154//1 79//1 78//1
f 86//1 79//1 206//1
f 93//1 116//1 55//1
f 184//1 256//1 284//1
f 102//1 277//1 275//1
f 147//1 288//1 289//1
f 201//1 185//1 186//1
f 183//1 246//1 186//1
f 33//1 78//1 125//1
f 78//1 80//1 125//1
f 209//1 91//1 208//1
f 88//1 55//1 54//1
f 144//1 103//1 121//1
f 231//1 51//1 209//1
f 50//1 105//1 103//1
f 35//1 59//1 156//1
f 223//1 59//1 34//1
f 34//1 59//1 35//1
f 15//1 8//1 1//1
f 264//1 7//1 6//1
f 149//1 127//1 79//1
f 80//1 166//1 125//1
f 123//1 137//1 212//1
f 252//1 118//1 255//1
f 220//1 34//1 210//1
f 223//1 57//1 59//1
f 271//1 46//1 47//1
f 230//1 133//1 232//1
f 57//1 230//1 58//1
f 133//1 155//1 232//1
f 59//1 232//1 155//1
f 47//1 230//1 271//1
f 157//1 216//1 194//1
f 230//1 216//1 271//1
f 162//1 292//1 161//1
f 95//1 6//1 5//1
f 42//1 171//1 43//1
f 176//1 178//1 275//1
f 141//1 229//1 240//1
f 292//1 94//1 279//1
f 151//1 190//1 152//1
f 151//1 193//1 248//1
f 295//1 198//1 287//1
f 221//1 72//1 71//1
f 127//1 149//1 150//1
f 149//1 79//1 86//1
f 122//1 49//1 255//1
f 255//1 296//1 122//1
f 1//1 122//1 296//1
f 15//1 1//1 296//1
f 15//1 296//1 118//1
f 102//1 178//1 286//1
f 178//1 102//1 275//1
f 102//1 278//1 277//1
f 102//1 286//1 285//1
f 278//1 102//1 12//1
f 102//1 285//1 12//1
f 299//1 12//1 173//1
f 262//1 285//1 286//1
f 262//1 261//1 300//1
f 262//1 300//1 285//1
f 288//1 38//1 37//1
f 147//1 38//1 288//1
f 74//1 182//1 147//1
f 120//1 147//1 289//1
f 154//1 78//1 33//1
f 80//1 214//1 166//1
f 208//1 207//1 22//1
f 207//1 54//1 53//1
f 166//1 290//1 167//1
f 255//1 118//1 296//1
f 252//1 255//1 253//1
f 20//1 253//1 255//1
f 71//1 253//1 20//1
f 219//1 60//1 222//1
f 57//1 222//1 60//1
f 57//1 223//1 222//1
f 58//1 232//1 59//1
f 271//1 291//1 46//1
f 270//1 216//1 157//1
f 157//1 236//1 270//1
f 280//1 171//1 170//1
f 301//1 238//1 243//1
f 280//1 281//1 171//1
f 175//1 180//1 243//1
f 283//1 162//1 228//1
f 283//1 228//1 294//1
f 302//1 292//1 279//1
f 292//1 283//1 189//1
f 303//1 180//1 304//1
f 305//1 301//1 303//1
f 304//1 305//1 303//1
f 37//1 297//1 288//1
f 301//1 243//1 303//1
f 277//1 274//1 237//1
f 304//1 293//1 198//1
f 174//1 175//1 274//1
f 175//1 243//1 274//1
f 303//1 243//1 180//1
f 241//1 307//1 242//1
f 174//1 171//1 179//1
f 240//1 228//1 141//1
f 294//1 240//1 233//1
f 200//1 199//1 293//1
f 293//1 199//1 198//1
f 304//1 198//1 295//1
f 171//1 306//1 179//1
f 171//1 281//1 306//1
f 297//1 37//1 143//1
f 97//1 120//1 258//1
f 166//1 214//1 290//1
f 137//1 167//1 142//1
f 167//1 95//1 215//1
f 241//1 174//1 274//1
f 282//1 274//1 277//1
f 241//1 282//1 307//1
f 240//1 294//1 228//1
f 239//1 234//1 227//1
f 305//1 304//1 295//1
f 298//1 297//1 299//1
f 288//1 308//1 289//1
f 308//1 288//1 297//1
f 95//1 167//1 290//1
f 142//1 167//1 215//1
f 6//1 290//1 214//1
f 126//1 6//1 214//1
f 290//1 6//1 95//1
f 310//1 294//1 239//1
f 205//1 213//1 217//1
f 276//1 282//1 277//1
f 273//1 311//1 309//1
f 294//1 233//1 234//1
f 239//1 294//1 234//1
f 215//1 310//1 213//1
f 312//1 226//1 233//1
f 120//1 289//1 259//1
f 261//1 260//1 300//1
f 308//1 260//1 259//1
f 259//1 289//1 308//1
f 173//1 300//1 308//1
f 297//1 298//1 308//1
f 215//1 189//1 310//1
f 94//1 292//1 189//1
f 95//1 189//1 215//1
f 283//1 292//1 162//1
f 213//1 205//1 138//1
f 213//1 310//1 239//1
f 282//1 309//1 307//1
f 244//1 269//1 233//1
f 173//1 308//1 298//1
f 39//1 259//1 90//1
f 259//1 258//1 120//1
f 189//1 283//1 310//1
f 294//1 310//1 283//1
f 213//1 239//1 217//1
f 227//1 218//1 217//1
f 276//1 277//1 278//1
f 282//1 276//1 309//1
f 244//1 233//1 240//1
f 244//1 240//1 229//1
f 229//1 242//1 244//1
f 244//1 307//1 311//1
f 242//1 307//1 244//1
f 309//1 311//1 307//1
f 269//1 244//1 311//1
f 312//1 233//1 269//1
f 312//1 224//1 226//1
f 217//1 239//1 227//1
f 226//1 227//1 234//1
f 269//1 311//1 273//1
f 273//1 265//1 269//1
f 269//1 195//1 312//1
f 37//1 36//1 143//1
f 65//1 219//1 70//1
f 69//1 99//1 24//1
f 258//1 39//1 97//1
f 79//1 154//1 206//1
f 268//1 231//1 153//1
f 50//1 209//1 51//1
f 106//1 231//1 313//1
f 272//1 106//1 313//1
f 278//1 132//1 276//1
f 12//1 299//1 143//1
f 143//1 106//1 257//1
f 143//1 257//1 12//1
f 222//1 220//1 219//1
f 210//1 252//1 220//1
f 158//1 267//1 236//1
f 268//1 267//1 158//1
f 268//1 153//1 267//1
f 90//1 314//1 188//1
f 86//1 206//1 99//1
f 284//1 263//1 184//1
f 184//1 263//1 262//1
f 113//1 314//1 247//1
f 261//1 263//1 247//1
f 261//1 247//1 314//1
f 300//1 260//1 308//1
f 260//1 314//1 90//1
f 261//1 314//1 260//1
f 188//1 314//1 113//1
f 90//1 188//1 186//1
f 90//1 186//1 39//1
f 209//1 107//1 91//1
f 300//1 173//1 285//1
f 12//1 285//1 173//1
f 132//1 278//1 12//1
f 12//1 257//1 132//1
f 21//1 208//1 22//1
f 53//1 55//1 163//1
f 236//1 235//1 270//1
f 271//1 235//1 291//1
f 235//1 271//1 270//1
f 292//1 302//1 161//1
f 181//1 174//1 241//1
f 174//1 179//1 175//1
f 293//1 179//1 306//1
f 180//1 179//1 304//1
f 293//1 306//1 200//1
f 304//1 179//1 293//1
f 306//1 281//1 200//1
f 200//1 281//1 191//1
f 277//1 237//1 275//1
f 297//1 143//1 299//1
f 312//1 195//1 224//1
f 231//1 106//1 52//1
f 298//1 299//1 173//1
f 272//1 268//1 131//1
f 132//1 272//1 131//1
f 268//1 272//1 313//1
f 313//1 231//1 268//1
f 113//1 247//1 135//1
f 80//1 127//1 126//1
f 184//1 262//1 286//1
f 272//1 132//1 257//1
f 131//1 276//1 132//1
f 276//1 273//1 309//1
